<?xml version="1.0" encoding="UTF-8" standalone="no"?>
<!-- Created with Inkscape (http://www.inkscape.org/) -->

<svg
   xmlns:dc="http://purl.org/dc/elements/1.1/"
   xmlns:cc="http://creativecommons.org/ns#"
   xmlns:rdf="http://www.w3.org/1999/02/22-rdf-syntax-ns#"
   xmlns:svg="http://www.w3.org/2000/svg"
   xmlns="http://www.w3.org/2000/svg"
   xmlns:sodipodi="http://sodipodi.sourceforge.net/DTD/sodipodi-0.dtd"
   xmlns:inkscape="http://www.inkscape.org/namespaces/inkscape"
   version="1.1"
   id="svg10"
   width="142"
   height="142"
   viewBox="0 0 142 142"
   sodipodi:docname="lg.svg"
   inkscape:version="0.92.4 (5da689c313, 2019-01-14)"
   inkscape:export-filename="C:\xampp\htdocs\seguros-lg\public\assets\img\lg.png"
   inkscape:export-xdpi="96"
   inkscape:export-ydpi="96">
  <metadata
     id="metadata16">
    <rdf:RDF>
      <cc:Work
         rdf:about="">
        <dc:format>image/svg+xml</dc:format>
        <dc:type
           rdf:resource="http://purl.org/dc/dcmitype/StillImage" />
        <dc:title></dc:title>
      </cc:Work>
    </rdf:RDF>
  </metadata>
  <defs
     id="defs14" />
  <sodipodi:namedview
     pagecolor="#ffffff"
     bordercolor="#666666"
     borderopacity="1"
     objecttolerance="10"
     gridtolerance="10"
     guidetolerance="10"
     inkscape:pageopacity="0"
     inkscape:pageshadow="2"
     inkscape:window-width="1366"
     inkscape:window-height="705"
     id="namedview12"
     showgrid="false"
     inkscape:zoom="3.7887324"
     inkscape:cx="22.302974"
     inkscape:cy="71"
     inkscape:window-x="-8"
     inkscape:window-y="-8"
     inkscape:window-maximized="1"
     inkscape:current-layer="svg10" />
  <g
     id="g20">
    <path
       style="fill:#fbfbfb"
       d="M 0,71 V 0 h 71 71 v 71 71 H 71 0 Z"
       id="path36"
       inkscape:connector-curvature="0" />
    <path
       style="fill:#d1d1d1"
       d="M 50.105453,140.52559 C 32.944866,136.37643 16.265786,122.74281 8.5088912,106.52421 6.1350779,101.5609 3.5907573,95.025 2.8548454,92 1.1836379,85.130424 1.2094176,65.997981 2.8979633,60 4.9792165,52.60706 9.1738765,44 10.695581,44 c 0.842837,0 1.138589,-0.509345 0.725812,-1.25 -0.383152,-0.6875 0.34209,-0.2607 1.611651,0.948445 2.172676,2.069285 2.241389,2.509916 1.169556,7.5 C 12.436856,59.419139 11.869597,68.015436 12.730946,73.5 l 0.785249,5 5.009711,0.294207 5.009712,0.294207 L 29.073682,58.294207 34.611746,37.5 30.720869,36.921477 C 27.07155,36.378871 24.598367,34.458873 25.554973,32.911053 25.787626,32.534611 25.307934,31.670525 24.48899,30.990862 22.080417,28.991924 22.674496,27.644479 29.015313,20.724595 53.33106,-5.8117564 94.20597,-7.0241111 119.93857,18.0278 c 19.28542,18.77528 25.15994,46.707046 15.37517,73.104912 -2.86891,7.739909 -5.48749,9.605888 -8.41196,5.994321 C 125.75085,95.70569 124.04121,95 121.74873,95 c -3.41969,0 -3.43698,0.02363 -5.39952,7.37822 -1.89486,7.10093 -1.90083,7.4207 -0.15903,8.50848 3.10505,1.93913 2.02661,4.69967 -4.44018,11.36574 -8.92367,9.19867 -17.851684,14.66027 -29.027611,17.75727 -8.418502,2.33289 -24.077603,2.58056 -32.616936,0.51588 z m 29.830658,-4.14025 c 8.802425,-2.16532 18.643722,-7.4236 25.187709,-13.45797 l 5.37618,-4.95751 -5.31061,3.02486 C 94.267997,127.21542 88.937043,128.45482 73,128.47847 60.473121,128.49707 57.615498,128.19149 52,126.23282 37.020065,121.00788 23.718385,110.00757 15.746339,96.251535 11.281115,88.54664 8.1274827,76.275622 7.9717429,66 7.8037628,54.916764 5.8006441,62.843458 5.697394,75 c -0.091604,10.785298 1.189185,18.17898 4.48899,25.91385 2.767553,6.48725 7.957081,14.11552 9.115686,13.39946 0.553821,-0.34228 0.718549,-0.15569 0.366064,0.41464 -1.547001,2.5031 11.130198,13.4601 20.571845,17.7804 12.106532,5.53969 27.017006,6.99595 39.696132,3.87699 z m 7.84537,-12.89586 C 93.513167,122.13815 102,118.57907 102,117.52673 c 0,-0.23794 -0.51272,-1.55792 -1.13938,-2.93328 -1.11289,-2.44254 -1.211673,-2.46325 -4.249996,-0.89128 -10.578403,5.47307 -29.616713,5.64641 -39.495226,0.35959 C 49.97231,110.23889 43.946956,102.22815 42.58989,94.75 L 41.909374,91 32.204687,90.92569 C 26.867109,90.884819 21.4875,90.662643 20.25,90.431964 17.128103,89.850022 17.416608,91.277865 21.744928,97.830532 30.413314,110.95365 42.503157,119.41002 58.5,123.53927 c 6.846467,1.76727 21.681419,1.74204 29.281481,-0.0498 z M 110.97569,106.25 c 3.72861,-14.318057 4.17673,-15.076654 9.11997,-15.438759 2.3369,-0.171182 4.41106,-0.805314 4.60927,-1.409181 C 125.10633,88.179088 112.16783,87 98.346375,87 91.594042,87 90,87.286479 90,88.5 c 0,1.0225 1.034583,1.504875 3.25,1.515313 4.918734,0.02317 6.086988,1.163165 5.236454,5.109767 -2.295969,10.65363 -11.468398,17.00447 -22.228801,15.39085 -6.619648,-0.99268 -10.391555,-4.85408 -11.007961,-11.269138 -0.271345,-2.823935 -0.189946,-6.751727 0.180885,-8.728427 l 0.674238,-3.594 7.981691,0.170386 c 4.38993,0.09371 8.13011,-0.0018 8.311511,-0.212183 C 82.579419,86.672156 83.98007,82.675 85.510575,78 c 1.530505,-4.675 2.989886,-9.0625 3.243069,-9.75 0.810852,-2.201805 -3.44794,-1.360629 -5.062901,1 C 79.406436,75.512481 70.12796,82.815152 68.070798,81.543755 66.753687,80.729736 72.827985,68.583373 76.469525,64.749389 84.692988,56.091342 101.98671,55.505811 109.12941,63.64359 111.70479,66.577758 114,71.670309 114,74.45034 114,76.464437 114.49673,77 116.36479,77 c 2.09367,0 2.54956,-0.773895 3.97634,-6.75 0.88635,-3.7125 1.91667,-8.737305 2.2896,-11.166234 0.60285,-3.926476 0.48551,-4.342349 -1.05813,-3.75 C 120.6177,55.700195 119.42323,56 118.91821,56 c -0.50501,0 -1.75795,0.839736 -2.78429,1.866079 -1.82144,1.82144 -1.97095,1.817395 -6.25,-0.169051 C 100.59648,53.385555 82.561986,53.91035 71.42693,58.816107 60.718833,63.53376 51.604233,72.099649 48.832668,80.050164 47.65332,83.433244 45,84.028278 45,80.909678 c 0,-1.149676 1.378594,-7.337176 3.063542,-13.75 C 57.481476,31.315524 56.687977,33 64.154988,33 67.794999,33 69,32.626936 69,31.5 69,30.217949 66.166667,30 49.5,30 32.833333,30 30,30.217949 30,31.5 c 0,0.825 0.3375,1.446711 0.75,1.381579 3.275836,-0.517237 7.405479,0.360017 7.912311,1.680801 0.728898,1.899479 -10.473177,45.398549 -12.170203,47.25843 -0.662836,0.726446 -3.294712,1.401446 -5.848612,1.5 -6.381649,0.246266 -6.292958,2.619792 0.106504,2.85024 2.6125,0.09408 5.425,0.271243 6.25,0.393701 0.825,0.122458 5.6625,0.270485 10.75,0.32895 L 47,87 v 5.039838 c 0,6.953002 2.953192,12.340192 8.796654,16.046782 11.623763,7.37313 27.318267,7.85137 40.668074,1.23923 4.684132,-2.32004 5.037372,-2.35967 6.250002,-0.7013 0.7069,0.96674 1.28527,2.32434 1.28527,3.01689 0,1.13772 2.60395,3.25222 4.09854,3.32815 0.32919,0.0167 1.62391,-3.90709 2.87715,-8.71959 z m -22.647107,-1.93456 c 1.631499,-0.83524 3.624146,-3.21865 4.708415,-5.631757 L 94.91683,94.5 90.269435,93.933062 c -2.556066,-0.311816 -4.788839,-0.986816 -4.961717,-1.5 -0.172877,-0.513184 -3.800336,-0.918128 -8.06102,-0.899876 L 69.5,91.566371 l 0.02925,5.803524 c 0.0304,6.032205 0.71036,7.034605 5.970751,8.802115 2.67304,0.89815 9.329327,-0.0652 12.828582,-1.85657 z M 128.80262,73.974168 c -0.24986,-6.064207 -0.88732,-11.45887 -1.41659,-11.98814 -0.61641,-0.616413 -1.61228,2.253171 -2.77056,7.983384 -0.99454,4.920131 -2.40662,9.442294 -3.13796,10.04925 -0.73133,0.606956 -3.24845,0.963557 -5.59359,0.792447 -4.16833,-0.304136 -4.29049,-0.415832 -5.45047,-4.983387 -2.46004,-9.686699 -7.94573,-13.941767 -17.651331,-13.69154 -2.905166,0.0749 -4.302298,0.326916 -3.10474,0.560035 4.128081,0.803579 4.308118,2.348761 1.34666,11.557797 L 88.211489,83 h 19.335241 c 11.81147,0 19.57573,0.389122 19.95327,1 1.46789,2.375103 1.73033,0.355188 1.30262,-10.025832 z m 6.92157,-4.495357 c 0.60083,-11.156725 -0.37338,-17.232132 -4.38459,-27.343179 -3.0407,-7.664692 -8.17291,-15.356687 -9.64087,-14.449436 -0.60312,0.372745 -0.69411,0.115347 -0.22663,-0.641058 1.27603,-2.06465 -10.87403,-12.641257 -18.91913,-16.469077 C 98.673835,8.7303894 93.925,6.6975168 92,6.0585664 86.374164,4.1912265 73.018126,3.618971 65.437473,4.920463 56.102882,6.5230815 43.833756,12.597401 37,18.999565 c -3.127123,2.929627 -4.205703,4.333556 -2.5,3.254113 10.289342,-6.511541 23.354436,-9.656058 37.44476,-9.012235 15.315909,0.699824 26.229554,4.880975 38.22428,14.64419 14.82528,12.067163 22.90141,28.919803 23.00436,48.003666 0.0632,11.708136 1.81169,7.313838 2.55079,-6.410488 z M 66.530096,56.200027 c 11.512905,-5.760034 29.319379,-7.425699 41.058124,-3.840685 5.65638,1.727463 6.30895,1.745195 9.20034,0.25 C 118.50022,51.724204 120.64617,51 121.55733,51 c 2.08573,0 1.53025,-1.522555 -3.10103,-8.499871 -6.58632,-9.922716 -18.14482,-18.384512 -30.9563,-22.66263 -5.812666,-1.941014 -9.03543,-2.332752 -19,-2.309512 -12.485317,0.02912 -19.725307,1.673637 -28.5,6.4736 l -3.5,1.914582 17.627555,0.04191 c 20.5897,0.04896 21.261838,0.312566 18.802716,7.37427 -1.436577,4.125328 -1.496899,4.164926 -5.940792,3.899771 -2.469214,-0.147331 -5.082962,0.123375 -5.808331,0.60157 -1.624843,1.071167 -6.504699,19.833771 -5.557187,21.366878 0.41428,0.67032 0.228724,0.826415 -0.469453,0.394919 -0.64689,-0.399801 -1.160512,-0.137973 -1.168163,0.595491 -0.0075,0.719959 -0.308827,2.412655 -0.669594,3.761546 -0.599267,2.240636 -0.230896,2.098785 4.263655,-1.641835 2.705777,-2.2519 6.733137,-5.0017 8.94969,-6.110667 z M 8.683114,56.8125 c -0.3192263,-0.797733 -0.5561827,-0.560776 -0.6041666,0.604167 -0.043421,1.054166 0.1929276,1.644791 0.5252193,1.3125 0.3322916,-0.332292 0.3678179,-1.194792 0.078947,-1.916667 z"
       id="path34"
       inkscape:connector-curvature="0" />
    <path
       style="fill:#afafaf"
       d="M 50.750645,140.44002 C 39.886984,137.8072 30.217548,132.21429 21.463514,123.5 9.8012389,111.89067 4.3963554,101.11355 1.9849743,84.660561 0.56722514,74.98718 1.9549334,62.822144 5.5725264,53.211085 8.4580971,45.544829 9.5618749,44 12.15383,44 c 2.801136,0 3.088732,1.868465 1.394183,9.057792 -1.609148,6.827003 -1.944676,14.769093 -0.935117,22.13463 l 0.612896,4.471565 4.863454,0.110781 c 2.6749,0.06093 5.092118,-0.259204 5.371595,-0.711408 0.279477,-0.452203 2.779231,-9.313952 5.555007,-19.692774 2.775777,-10.378822 5.285009,-19.64841 5.576072,-20.599084 0.421904,-1.378024 -0.286523,-1.858938 -3.493884,-2.371816 -3.373099,-0.53938 -4.346154,-1.263131 -6.022685,-4.479624 L 23.075757,28.083756 27.097404,22.99599 C 37.56882,9.7486545 58.037914,0 75.381717,0 92.782401,0 107.50585,6.3402799 120.51173,19.434099 137.3219,36.357923 143.71782,59.114731 137.98098,81.590037 134.23988,96.246587 129.28835,102.57625 126.51287,96.25 125.7847,94.590257 124.68526,94 122.32189,94 c -3.84094,0 -4.14677,0.432614 -6.27919,8.88219 -1.61309,6.39176 -1.6044,6.65214 0.2726,8.17204 2.80208,2.26899 1.66983,4.59089 -5.92334,12.14687 -15.712303,15.63535 -38.764472,22.29843 -59.641315,17.23892 z M 80.5,136.41872 c 9.010702,-2.1698 18.247262,-7.23976 24.97672,-13.70976 l 6.02328,-5.79104 -5.15649,3.06928 C 92.681197,128.11936 74.253235,131.03693 58.578124,127.54955 39.867668,123.38687 23.264863,110.53838 15.18169,93.966151 10.016568,83.37655 7.5299743,71.585946 8.3603668,61.621694 L 8.9538685,54.5 7.4427113,59 C 4.9274867,66.489962 4.4647586,80.496579 6.4393328,89.371913 10.018817,105.46101 20.370211,120.64743 33.309528,128.79288 48.352573,138.26266 63.007761,140.6309 80.5,136.41872 Z M 88,123.59737 c 3.025,-0.79618 7.628069,-2.36126 10.229041,-3.47796 l 4.729039,-2.03037 -1.67798,-2.92371 -1.677975,-2.92371 -4.266829,1.82898 C 80.730369,120.331 60.75254,118.19187 50.927603,109.31563 46.456717,105.27645 43,98.678643 43,94.184276 c 0,-2.924789 -0.264843,-3.184698 -3.25,-3.18945 -1.7875,-0.0028 -7.704936,-0.300145 -13.149858,-0.660667 l -9.899858,-0.655493 2.899858,5.410667 c 1.594922,2.975867 6.095233,8.627817 10.00069,12.559887 C 44.684395,122.83557 67.363349,129.02893 88,123.59737 Z M 110.43216,109.75 c 0.81842,-2.8875 2.01941,-7.5 2.66887,-10.25 1.57356,-6.662887 3.31427,-8.5 8.05396,-8.5 C 124.34795,91 125,90.656921 125,88.976926 c 0,-1.964732 -0.50951,-2.0152 -17.66758,-1.75 C 94.28644,87.428568 89.556091,87.826983 89.24909,88.75 88.971016,89.586047 89.956704,90 92.225537,90 c 1.865712,0 4.162206,0.563039 5.103319,1.251198 1.574432,1.151253 1.591578,1.653728 0.214638,6.290387 C 95.007347,106.08172 89.296414,110 79.38524,110 c -9.642717,0 -14.523577,-4.6869 -14.28556,-13.717881 0.22104,-8.386849 0.480004,-8.615528 9.486869,-8.377442 l 8.041728,0.212573 3.206031,-10.308625 c 1.763317,-5.669744 3.196954,-10.550363 3.185861,-10.845821 -0.01109,-0.295457 -0.922966,-0.605201 -2.026385,-0.688319 -1.270714,-0.09572 -2.530121,0.861996 -3.435262,2.612347 C 80.887538,74.051944 70.09125,82.424583 68.348801,80.682135 67.036672,79.370005 74.14608,67.030807 78.226647,63.537994 87.100433,55.942363 101.47442,56.01377 108.58741,63.688821 111.42705,66.752835 114,72.187827 114,75.122124 114,76.45468 114.72045,77 116.48095,77 c 1.88807,0 2.63053,-0.657171 3.10691,-2.75 0.34428,-1.5125 1.47786,-6.199976 2.51905,-10.416613 1.0412,-4.216637 1.89309,-7.929137 1.89309,-8.25 0,-1.271143 -4.06944,-0.474965 -7.29269,1.4268 -3.39299,2.001914 -3.42525,2.002121 -7.83755,0.05035 C 102.84879,54.397176 93.003506,53.542151 83.987089,54.899572 69.084501,57.143155 53.886027,67.465843 49.389773,78.397806 47.455456,83.100805 46.331086,84.02637 45.42395,81.662413 44.893028,80.278851 55.432054,38.929734 57.119035,35.777581 58.045435,34.046587 59.301159,33.73781 65.5,33.716734 68.267934,33.707323 69.946985,32.596589 69.984687,30.75 69.993109,30.3375 61,30 50,30 c -17.111111,0 -20,0.216667 -20,1.5 0,1.08528 1.114598,1.5 4.031385,1.5 2.499723,0 4.232021,0.52285 4.559466,1.376158 0.290445,0.756887 -0.667545,5.819387 -2.128866,11.25 -1.46132,5.430613 -4.160871,15.680468 -5.999,22.777455 -1.83813,7.096988 -3.931763,13.277597 -4.652519,13.734687 -0.720756,0.457091 -3.174821,0.837965 -5.453477,0.846387 -2.736782,0.01012 -4.337056,0.520986 -4.714704,1.50512 -0.801138,2.087732 1.65284,2.482476 17.198173,2.766475 L 46.180917,87.5 46.476679,92.219667 C 47.292961,105.24564 59.148035,114 75.971402,114 c 7.526117,0 16.974212,-2.18542 21.835758,-5.05078 1.818938,-1.07207 3.45758,-1.94922 3.64142,-1.94922 0.18384,0 1.05448,1.8 1.93474,4 2.39386,5.98284 5.13667,5.49645 7.04884,-1.25 z M 86.618565,105.37671 C 90.245986,103.65539 93.331596,99.967262 94.254277,96.25 94.759473,94.214684 94.451717,94 91.028825,94 88.885278,94 86.705213,93.349729 86,92.5 85.08622,91.398963 82.659876,91 76.877555,91 H 69 v 4.918213 c 0,6.503857 0.701979,8.044147 4.399661,9.653847 4.203956,1.83009 9.103186,1.75769 13.218904,-0.19535 z M 135.72159,69 C 136.12255,60.257223 135.85707,55.94157 134.6143,51 129.55767,30.893446 114.82021,14.333084 95.5,7.0475853 87.208958,3.9210983 71.026966,3.1145452 62,5.377857 52.708767,7.7074279 42.414164,13.179503 35.486898,19.470842 c -6.757602,6.137251 -6.722391,6.902817 0.117966,2.564792 2.570876,-1.630402 8.324004,-4.20832 12.784728,-5.728709 7.084487,-2.414668 9.62834,-2.764446 20.110408,-2.765165 9.862228,-6.76e-4 13.247034,0.411509 19,2.313732 11.499541,3.80233 18.4129,8.053054 27.06351,16.640178 13.2837,13.186215 19.12948,28.316007 18.16132,47.00433 -0.45725,8.826045 -0.43789,8.922687 1.00155,5 0.80729,-2.2 1.70514,-9.175 1.99521,-15.5 z m -6.91068,4.485077 c -0.24242,-6.333208 -0.88746,-11.961624 -1.43342,-12.507592 -0.65689,-0.65689 -1.61523,2.138783 -2.83315,8.264924 -1.01227,5.091675 -2.27895,9.820091 -2.81486,10.507591 -0.5359,0.6875 -2.95839,1.25 -5.38331,1.25 -2.66267,0 -4.55584,-0.495093 -4.77984,-1.25 -0.20399,-0.6875 -0.91331,-3.351613 -1.57625,-5.920251 -0.66385,-2.572182 -2.51712,-6.011971 -4.12533,-7.656886 C 102.40901,62.63825 95.179034,60.657338 90,61.826144 l -3.5,0.789881 3.25,0.666988 C 93.74991,64.103902 93.82215,65.232475 90.5,75 89.125,79.042668 88,82.496486 88,82.675152 c 0,0.178667 4.3875,0.379989 9.75,0.447384 8.75574,0.110041 30.17796,1.286769 31.12584,1.70975 0.2067,0.09224 0.17749,-5.014002 -0.0649,-11.347209 z M 80.238133,67.511189 c 1.051729,-2.00898 1.050427,-2.009004 -1.185248,-0.02238 -1.230973,1.093846 -2.711932,2.893846 -3.291018,4 -1.051729,2.00898 -1.050427,2.009004 1.185248,0.02238 1.230973,-1.093846 2.711932,-2.893846 3.291018,-4 z M 66.733199,56.597397 C 74.675697,52.63 82.382826,51 93.199372,51 c 7.283798,0 11.092408,0.498989 14.925618,1.955496 4.62796,1.758485 5.43002,1.808859 7.96107,0.5 C 117.6341,52.654973 120.04803,52 121.45034,52 122.85265,52 124,51.721365 124,51.380811 c 0,-0.340554 -1.58217,-3.22372 -3.51593,-6.407036 C 113.91978,34.167792 100.577,23.96243 87,19.363153 82.674098,17.897732 78.618124,17.509018 68,17.542242 c -12.858269,0.04023 -13.891289,0.197842 -21.731495,3.31555 -4.527322,1.800319 -8.49138,3.69381 -8.809017,4.207758 -0.348573,0.564003 5.689689,0.939863 15.231495,0.948105 8.694959,0.0075 16.790388,0.276854 17.989842,0.598541 3.000618,0.804752 3.557216,2.882329 1.860266,6.943701 C 71.145962,36.894913 70.932679,37 65.551027,37 62.497962,37 60,37.212415 60,37.472033 c 0,0.765618 -6.990472,26.339562 -7.71794,28.235313 -0.381509,0.994196 1.444794,-0.02242 4.276004,-2.380248 2.718065,-2.263602 7.296875,-5.291967 10.175135,-6.729701 z"
       id="path32"
       inkscape:connector-curvature="0" />
    <path
       style="fill:#8f8f8f"
       d="M 50.215527,140.04812 C 32.325715,135.19702 16.903209,122.76812 9.1654839,106.96615 3.7020915,95.808819 2,88.652434 2,76.839122 2,65.273483 3.2502884,58.701426 7.0583967,50.25 9.2123894,45.469592 10.366965,44 11.96867,44 c 2.98187,0 3.315126,1.812852 1.567018,8.524292 C 11.970972,58.531642 11.496058,71.230289 12.625,76.875 13.222885,79.864425 13.462427,80 18.146439,80 c 4.12257,0 5.050355,-0.355606 5.870299,-2.25 C 25.062748,75.333308 35,38.459395 35,36.994686 35,36.510856 33.0875,35.976622 30.75,35.807498 27.216976,35.551875 26.446092,35.120424 26.180449,33.25 26.004696,32.0125 25.442196,31 24.930449,31 24.418702,31 24,29.955502 24,28.678893 24,27.162485 26.281275,24.042607 30.580202,19.679792 41.222631,8.8791993 52.834206,3.0933512 68.377566,0.84601437 79.915883,-0.82225334 91.609541,1.1842228 103.24839,6.8293837 134.3568,21.91782 148.50931,60.603755 134.4123,92.016062 132.22835,96.882566 131.28553,98 129.36344,98 c -2.11025,0 -2.84342,-0.9601 -2.48186,-3.25 0.20151,-1.27625 -7.5784,-0.82462 -8.61314,0.5 C 117.49112,96.245087 114,108.58615 114,110.33888 c 0,0.23532 0.9,0.66321 2,0.95087 3.63441,0.95042 2.09752,3.92732 -6.25549,12.11659 C 97.156593,135.7475 85.237614,140.94671 68,141.61584 c -8.286499,0.32166 -12.035637,-0.009 -17.784473,-1.56772 z m 32.934667,-4.01279 c 7.360502,-2.27343 16.583096,-7.64701 23.812526,-13.87446 6.61186,-5.69547 6.42061,-7.02093 -0.38489,-2.66751 -2.98219,1.90769 -8.944691,4.69865 -13.249998,6.20214 -6.996644,2.44335 -9.20822,2.73133 -20.827832,2.71207 -11.464164,-0.019 -13.866519,-0.33134 -20.334604,-2.64377 C 32.201293,118.62635 17.535231,103.83946 11.451531,84.714507 8.7329552,76.168286 7.7778767,63.764351 9.202072,55.5 c 0.5386608,-3.125753 0.2416217,-2.688629 -1.3590622,2 -2.9604725,8.671642 -3.5900299,23.491577 -1.3914546,32.75518 5.7719048,24.31967 25.4269658,43.50191 48.8896228,47.71354 7.244269,1.30037 20.271681,0.39465 27.809016,-1.93339 z m 1.019558,-11.44079 c 4.040128,-0.77301 9.911578,-2.54022 13.047667,-3.92715 l 5.701981,-2.52169 -1.56597,-3.13906 c -1.15315,-2.31155 -1.999288,-2.94937 -3.209701,-2.41948 C 89.905102,116.19378 84.877085,117.28205 76.5,117.27179 58.870777,117.25019 46.921523,109.99153 43.921707,97.481891 43.264645,94.741851 42.577585,91.9375 42.394909,91.25 42.151562,90.334169 38.712685,90 29.531385,90 22.639123,90 17,90.347762 17,90.772804 c 0,1.644913 7.376951,11.957946 11.826275,16.533226 8.747892,8.99553 19.208247,14.58673 32.173725,17.19729 8.698035,1.75132 14.376358,1.77367 23.169752,0.0912 z m 27.842528,-20.26337 c 1.43445,-5.59285 3.19861,-10.88035 3.92035,-11.749995 C 116.70336,91.652502 118.79691,91 121.00581,91 c 2.91992,0 3.87788,-0.447233 4.28394,-2 0.50902,-1.946504 0.0307,-2 -17.88337,-2 C 91.71182,87 89,87.220996 89,88.5 c 0,0.884843 0.922735,1.5056 2.25,1.513655 5.114543,0.03104 6.750687,1.088742 6.73355,4.352976 -0.04524,8.617259 -8.553778,15.636649 -18.94544,15.629629 -10.458701,-0.007 -15.070874,-5.85173 -13.519416,-17.132181 L 66.187676,88 h 8.272357 8.272358 l 3.133804,-9.885652 C 87.589788,72.677239 89,67.727239 89,67.114348 89,64.408317 85.077104,66.364739 82.049399,70.580742 78.665422,75.292847 71.722856,81 69.374712,81 c -1.020444,0 -1.096181,-0.632433 -0.329326,-2.75 3.256129,-8.991356 8.018939,-14.905418 14.394907,-17.8744 12.630347,-5.881345 26.482147,-0.172053 29.814917,12.288805 1.03216,3.859105 1.49871,4.388257 3.64211,4.130836 2.24778,-0.269956 2.65307,-1.151656 4.73238,-10.295241 1.25074,-5.5 2.29572,-10.3375 2.32219,-10.75 0.0913,-1.423298 -3.84747,-0.744159 -7.21813,1.244577 l -3.38055,1.994576 -4.27604,-2.065955 c -6.04449,-2.920384 -19.433683,-3.64158 -28.390926,-1.529252 -14.321636,3.377378 -25.935529,11.651131 -31.06791,22.13282 -4.875281,9.956622 -5.10007,5.263453 -0.58073,-12.124548 C 54.749522,43.425817 56.760801,36.19605 57.491495,35.013762 57.836091,34.456193 60.518331,34 63.452028,34 c 4.025339,0 5.48869,-0.403129 5.964522,-1.643128 0.34679,-0.903721 0.505737,-1.767918 0.353217,-1.920439 -0.293435,-0.293434 -39.772531,-1.056021 -39.770787,-0.76822 5.61e-4,0.09252 -0.272125,0.880016 -0.605969,1.75 C 28.902103,32.697499 29.548026,33 32.770566,33 c 5.567058,0 6.541635,1.534751 4.821935,7.593513 C 36.826548,43.292081 34.295536,52.925 31.96803,62 29.640524,71.075 27.110182,79.5125 26.345047,80.75 25.237612,82.541126 24.040847,83 20.476947,83 18.014626,83 16,83.188196 16,83.418213 c 0,0.230016 -0.273145,1.130016 -0.606989,2 C 14.855495,86.818956 16.572321,87 30.393011,87 H 46 l 0.0056,3.25 c 0.01566,9.128277 5.33979,16.90141 14.25278,20.80881 10.512929,4.6088 27.798129,3.6455 37.52081,-2.09102 1.910093,-1.12698 3.59389,-1.91827 3.74177,-1.75843 0.14788,0.15985 0.98179,2.01067 1.85314,4.11292 1.25552,3.02913 2.04554,3.7554 3.80719,3.5 1.92058,-0.27845 2.57764,-1.70533 4.83101,-10.49111 z m -25.083365,0.91728 c 3.572038,-1.82143 6.47519,-5.24633 7.513226,-8.863488 0.535025,-1.86436 0.102885,-2.182649 -3.646086,-2.685491 C 88.456878,93.385721 86.383329,92.649988 86.18817,92.064509 85.975245,91.425734 82.510968,91 77.526073,91 h -8.307261 l -0.475117,3.75 c -0.602379,4.75445 1.490913,10.01006 4.461875,11.2024 3.727249,1.49586 10.04477,1.1718 13.723345,-0.70395 z M 135.7499,69.122954 c 0.61389,-13.654597 -0.48475,-19.468911 -5.86606,-31.04469 -3.22901,-6.945961 -5.3646,-9.85183 -12.18705,-16.582775 C 105.178,9.1446202 92.761796,3.8975696 75.95918,3.8573033 60.253194,3.819665 46.21343,9.3584658 34.754349,20.112943 L 28.5,25.98272 37,21.569335 c 12.449111,-6.46385 18.503594,-7.997944 31.5,-7.981519 8.543216,0.0108 12.67508,0.521455 18.5,2.28642 19.81292,6.003363 35.92715,21.235237 42.65856,40.32272 2.18181,6.186696 2.59583,9.168745 2.70847,19.508283 0.12576,11.543051 0.20726,12.004213 1.50217,8.5 0.75307,-2.037881 1.59938,-8.82491 1.8807,-15.082285 z m -6.74534,0.05469 C 128.45205,65.150343 128,61.437843 128,60.927641 128,60.417438 127.60583,60 127.12406,60 c -0.48177,0 -1.66831,4.079392 -2.63675,9.065316 -0.96844,4.985923 -2.43023,9.734751 -3.24843,10.55295 -1.87085,1.870851 -8.25078,1.446473 -9.29476,-0.618266 -0.41714,-0.825 -1.2938,-3.497665 -1.94812,-5.939256 -2.21804,-8.2765 -10.485594,-13.039237 -19.924898,-11.478248 -4.197325,0.694116 -4.334538,0.803419 -1.678043,1.336716 4.693839,0.942298 5.035263,2.714018 2.223439,11.537895 -1.39459,4.376409 -2.410849,8.081875 -2.258354,8.234371 0.152495,0.152495 9.246797,0.621796 20.209556,1.042893 L 128.5,84.5 l 0.75456,-4 c 0.415,-2.2 0.3025,-7.295062 -0.25,-11.322359 z M 80.238133,67.511189 c 1.051729,-2.00898 1.050427,-2.009004 -1.185248,-0.02238 -1.230973,1.093846 -2.711932,2.893846 -3.291018,4 -1.051729,2.00898 -1.050427,2.009004 1.185248,0.02238 1.230973,-1.093846 2.711932,-2.893846 3.291018,-4 z M 67.728678,56.125424 c 10.436408,-5.292188 32.288612,-6.758158 41.603362,-2.79099 3.42129,1.457129 4.1395,1.473082 6.70034,0.14882 C 117.60995,52.667464 120.04803,52 121.45034,52 122.85265,52 124,51.619766 124,51.155036 124,48.914158 115.66143,37.870532 110.07643,32.714625 91.997825,16.024978 64.709128,11.895753 42.5,22.489207 l -7,3.338906 12.5,0.194477 c 6.875,0.106963 15.2,0.483137 18.5,0.835944 5.587092,0.597322 6.021447,0.827312 6.31165,3.342013 C 73.396989,35.272689 71.547742,37 65.532204,37 61.260127,37 60.024403,37.364871 59.605405,38.75 59.314251,39.7125 57.691819,45.675 56,52 c -1.691819,6.325 -3.322301,12.312862 -3.623293,13.30636 -0.374622,1.236531 1.293518,0.411572 5.288017,-2.61513 3.209402,-2.431819 7.738181,-5.386432 10.063954,-6.565806 z"
       id="path30"
       inkscape:connector-curvature="0" />
    <path
       style="fill:#6e6e6e"
       d="M 52.107523,140.40084 C 33.264083,136.27887 16.105672,122.26281 7.8426103,104.2425 0.1437342,87.452581 -0.02426305,66.417777 7.4063277,49.615893 9.197139,45.56655 10.433347,44 11.837982,44 c 2.784746,0 3.231319,2.119349 1.593373,7.561832 C 11.995659,56.332287 11.472649,73.43029 12.630286,77.75 13.16023,79.727478 13.880633,80 18.578087,80 c 5.333897,0 5.346845,-0.0077 6.333014,-3.75 1.636506,-6.210243 4.80548,-18.171951 7.524007,-28.400348 C 33.845799,42.541961 35,37.730335 35,37.15715 35,36.583965 33.091382,35.976622 30.758627,35.807498 27.442933,35.567111 26.435561,35.0635 26.142945,33.5 25.937075,32.4 25.309786,31.2108 24.748971,30.857334 22.525865,29.456173 25.344102,24.876208 32.597824,18.102032 47.079054,4.5781599 65.025856,-1.5271554 82.978595,0.96301742 104.64717,3.9686037 122.27265,16.238663 131.87144,35 c 5.67584,11.093746 7.51382,18.664165 7.52629,31 0.0109,10.777517 -1.31212,17.202207 -5.61152,27.25 -2.19465,5.128943 -5.50762,6.531347 -6.49646,2.75 -0.42086,-1.609364 -1.36402,-2 -4.82883,-2 -4.74128,0 -4.44897,-0.440433 -7.50224,11.30419 -1.17479,4.51895 -1.12061,4.89409 0.91248,6.31812 2.11066,1.47837 2.11994,1.58548 0.39514,4.55977 -3.18812,5.49767 -14.05166,14.50136 -22.580854,18.71499 -13.60283,6.72013 -27.56709,8.56861 -41.577923,5.50377 z m 26.179683,-3.03435 c 9.83699,-2.23738 18.447186,-6.55851 26.380594,-13.23942 7.93011,-6.67812 9.4124,-9.40225 2.85236,-5.24199 C 70.852069,142.13929 21.395816,122.83006 10.48608,81 9.2130853,76.11909 8.8949768,71.702645 9.2090012,63.269737 9.4390069,57.093092 9.4430112,52.223655 9.2178996,52.448767 7.5602702,54.106396 5,68.676674 5,76.452471 5,116.27527 40.66933,145.92249 78.287206,137.36649 Z M 85.5,124.50743 c 5.450397,-1.13512 14.201377,-4.22913 17.32374,-6.125 C 103.20881,118.14862 100.10456,112 99.601438,112 c -0.190961,0 -2.541905,1.0125 -5.22432,2.25 -4.265506,1.96784 -6.507375,2.25 -17.877118,2.25 -11.777844,0 -13.42017,-0.22396 -17.469319,-2.38221 -10.0554,-5.35968 -14.485429,-10.8606 -15.662567,-19.448757 L 42.728152,90 H 29.757087 C 15.018844,90 15.541566,89.457278 21.554607,98.516306 35.316637,119.24968 60.871478,129.63665 85.5,124.50743 Z M 85.13942,113.558 c 3.651681,-0.774 8.811039,-2.51092 11.46524,-3.85982 l 4.82582,-2.45255 1.76799,3.94893 c 1.40426,3.13651 2.23096,3.88274 4.01832,3.62719 1.9528,-0.27921 2.62047,-1.71005 5.04971,-10.82175 1.55827,-5.844815 3.53454,-11.054189 4.45757,-11.75 0.912,-0.6875 3.14718,-1.25 4.96706,-1.25 C 123.51101,91 125,90.811804 125,90.581787 c 0,-0.230016 0.27314,-1.130016 0.60699,-2 C 126.14708,87.17433 124.16329,87 107.60699,87 89.533637,87 89,87.058616 89,89.043837 c 0,1.12411 0.5625,1.970793 1.25,1.881517 0.6875,-0.08928 2.7125,-0.109002 4.5,-0.04384 C 97.611227,90.985827 98,91.333521 98,93.78811 98,102.32293 89.432529,110 79.907816,110 68.654373,110 63.815407,104.08224 65.559361,92.45272 L 66.227088,88 h 8.339504 8.339505 l 2.972529,-9.25 c 1.63489,-5.0875 3.279163,-10.0375 3.65394,-11 0.533457,-1.370022 0.159973,-1.75 -1.720091,-1.75 -1.70913,0 -3.509138,1.452426 -6.243346,5.037756 -3.410129,4.471657 -11.976768,10.887938 -13.073132,9.791575 -0.682194,-0.682194 4.228318,-10.601333 7.134474,-14.411501 7.72495,-10.127931 25.161559,-11.113409 33.268379,-1.880253 2.69896,3.07395 5.08089,8.813706 5.09557,12.278845 0.004,0.838278 0.97666,1.201493 2.67915,1 2.51653,-0.297836 2.80894,-0.903797 4.97816,-10.316422 1.26753,-5.5 2.31442,-10.5625 2.32643,-11.25 0.0326,-1.865759 -4.05136,-1.50277 -7.62773,0.677966 -3.12455,1.905231 -3.18371,1.903602 -7.44582,-0.205125 -9.150574,-4.527343 -29.161248,-3.14057 -41.015107,2.842416 -6.978729,3.522367 -15.415356,11.766279 -18.50595,18.083224 -4.967748,10.153712 -4.359213,3.472061 1.788997,-19.643001 3.290736,-12.371986 6.2081,-22.719464 6.483032,-22.994395 0.274931,-0.274931 3.047959,-0.727397 6.162284,-1.00548 4.127962,-0.368592 5.74486,-0.939129 5.966667,-2.105392 C 70.05143,30.49687 67.670387,30.212529 50.393955,29.584614 34.599814,29.010574 30.533891,29.129365 29.864872,30.184401 28.442746,32.42708 28.890581,33 32.065741,33 c 1.686158,0 3.89505,0.443832 4.908648,0.986293 1.731449,0.926644 1.754313,1.334876 0.378047,6.75 C 30.809472,66.48058 26.61361,80.672629 25.226782,81.75 24.341809,82.4375 21.903749,83 19.80887,83 17.713992,83 16,83.188196 16,83.418213 c 0,0.230016 -0.273145,1.130016 -0.606989,2 C 14.855495,86.818956 16.572321,87 30.393011,87 H 46 l 0.02196,4.25 c 0.05735,11.09801 9.483967,20.37029 22.982244,22.60595 7.791538,1.29048 8.722191,1.27329 16.135214,-0.29795 z m 2.509331,-8.19561 c 3.661,-1.73726 7.91689,-8.445969 6.952419,-10.959342 C 94.265686,93.528792 92.583711,93 90.138374,93 c -2.218387,0 -4.131809,-0.543399 -4.401516,-1.25 -0.341952,-0.895877 -2.762406,-1.158165 -8.543822,-0.925836 -8.006346,0.321738 -8.071512,0.346056 -8.709325,3.25 -0.9477,4.314848 0.32976,8.633956 3.227926,10.913646 3.201157,2.51803 11.032247,2.70209 15.937114,0.37458 z M 134.66946,81.845566 C 137.13046,72.53369 136.81711,56.515372 133.9976,47.5 128.26046,29.155514 113.89847,13.595485 96.798099,7.1974176 78.981127,0.53123393 57.97074,3.094172 42.274952,13.848387 36.994504,17.466369 27.79552,26 29.175898,26 29.495885,26 32.399711,24.409048 35.628846,22.464551 45.302293,16.639465 55.724421,13.838944 68,13.766128 80.787979,13.690272 88.247586,15.46679 99.312007,21.223134 113.8102,28.765923 124.49584,41.567372 130.01043,58 c 2.31688,6.903963 3.1629,21.630503 1.69472,29.5 -1.11167,5.958573 0.91874,2.085571 2.96431,-5.654434 z M 129.36971,82.75 c 0.33164,-1.2375 0.60913,-3.963317 0.61664,-6.057371 C 130.00374,71.841482 127.90309,59 127.09213,59 c -0.33812,0 -1.61592,4.582075 -2.83954,10.182388 -1.22363,5.600313 -2.79353,10.543422 -3.48868,10.984687 -0.69515,0.441265 -2.73606,0.80919 -4.53535,0.817612 -3.49701,0.01637 -3.39637,0.154889 -6.72183,-9.251892 C 107.24595,65.337693 102.56587,61.787754 95.677864,61.243314 92.830039,61.018218 89.375,61.292863 88,61.853638 c -2.208201,0.900583 -2.25969,1.026988 -0.44113,1.082976 1.132379,0.03486 2.881343,0.664792 3.886587,1.399845 1.755566,1.283701 1.723635,1.648985 -0.808871,9.253409 C 89.186464,77.944191 88,82.033258 88,82.676685 c 0,0.8487 5.271128,1.200188 19.20039,1.280317 10.56022,0.06075 19.41022,0.320275 19.66667,0.576725 1.01332,1.013316 1.92773,0.36158 2.50265,-1.783727 z M 79.468211,69.043087 c 2.622235,-3.554238 2.627695,-5.826561 0.0059,-2.470086 -4.932759,6.315104 -5.780683,7.697926 -4.166241,6.794438 0.908579,-0.508466 2.780717,-2.454425 4.160305,-4.324352 z M 61.5,60.010689 c 12.409368,-8.531892 31.474633,-11.424403 45.91104,-6.965452 6.03614,1.864375 6.81679,1.90859 8.82784,0.5 C 117.45225,52.695357 119.69488,52 121.22251,52 c 3.57098,0 3.49843,-0.834149 -0.63447,-7.294923 C 107.51963,24.27587 82.457669,13.188516 58.683396,17.318605 c -5.517915,0.958577 -11.504237,2.839358 -16,5.026875 L 35.5,25.840727 42,26.055953 c 3.575,0.118374 11.9,0.49171 18.5,0.829636 11.130971,0.569916 12.021391,0.763996 12.295379,2.679955 0.162459,1.136049 -0.163903,3.273549 -0.725249,4.75 C 71.135162,36.774698 70.592326,37 65.602303,37 60.337851,37 60.120033,37.109033 59.109716,40.25 57.74103,44.505095 52,66.5129 52,67.504558 c 0,0.422493 1.2375,-0.472007 2.75,-1.987777 1.5125,-1.515771 4.55,-3.993512 6.75,-5.506092 z"
       id="path28"
       inkscape:connector-curvature="0" />
    <path
       style="fill:#4f4f4f"
       d="M 53.357921,140.45152 C 28.089291,134.9072 9.033029,115.85234 3.4027469,90.5 0.61321733,77.939157 2.3062463,61.202648 7.5755075,49.25 c 2.3055584,-5.229866 4.2039315,-6.425612 6.2628105,-3.944815 0.786512,0.947689 0.665463,2.659594 -0.441937,6.25 -1.570969,5.093385 -2.170846,20.636747 -1.002267,25.969617 0.638057,2.911803 0.767826,2.967947 6.090191,2.634894 3.997152,-0.250127 5.572691,-0.780111 5.945612,-2 C 26.41474,71.666979 35,38.591239 35,37.437188 35,36.439242 33.836312,36 31.192448,36 27.7172,36 27.232339,35.654222 25.636893,32.038063 23.458601,27.100852 23.902091,26.191803 32.339774,18.298765 47.46822,4.1468458 66.316526,-1.8173563 85.396543,1.5099201 117.32641,7.0780225 139.2972,33.375527 139.27611,66 c -0.009,14.490635 -5.40172,32 -9.85503,32 -0.88458,0 -1.84367,-0.9 -2.13133,-2 -0.42177,-1.612853 -1.36402,-2 -4.86764,-2 h -4.34463 l -1.50816,5.078516 c -2.66706,8.980984 -2.91162,11.576154 -1.15441,12.250454 0.8718,0.33454 1.58509,1.36354 1.58509,2.28665 0,2.59729 -6.70023,10.16348 -13.423,15.15784 -14.972305,11.12294 -33.31207,15.38771 -50.219079,11.67806 z m 31.52292,-4.74695 c 4.059463,-1.42733 9.880336,-4.25473 12.935275,-6.28309 C 104.15384,125.21347 113,117.22407 113,115.70817 c 0,-0.55998 -0.7875,-0.32592 -1.75,0.52014 -3.48737,3.06547 -12.912258,7.66482 -20.25,9.88202 -8.821829,2.66562 -24.160845,3.11833 -33,0.97393 C 34.664689,121.42306 15.915075,102.94985 10.470257,80.25518 8.7457595,73.067264 8.7317632,56.531362 10.445918,51.5 10.867963,50.26122 10.564675,50.461429 9.6490697,52.026022 5.1222181,59.761541 3.521663,80.506222 6.5499933,92.192931 12.257518,114.21899 30.001331,131.99364 51.788378,137.50993 c 8.838917,2.23794 23.935352,1.41435 33.092463,-1.80536 z M 84.53201,124.90945 c 3.24463,-0.5998 8.753093,-2.23299 12.241028,-3.62931 4.986722,-1.99632 6.198372,-2.88503 5.670882,-4.15945 -0.36896,-0.89138 -0.89726,-2.40819 -1.174,-3.37069 -0.6327,-2.20044 -0.65107,-2.19926 -7.26992,0.46444 -7.381054,2.97044 -27.231743,3.24723 -33.5,0.46711 C 50.204665,110.11533 44.778052,103.76608 43.464788,94.75 L 42.772912,90 H 29.886456 C 22.798905,90 17,90.247347 17,90.54966 c 0,1.564377 3.839906,7.665127 8.382755,13.31832 13.518802,16.823 36.925805,25.1497 59.149255,21.04147 z m 1.840229,-11.40016 c 3.779732,-0.80079 8.417954,-2.36798 10.307161,-3.48264 4.57319,-2.69824 4.98203,-2.60495 6.45676,1.47335 1.00626,2.78276 1.80049,3.5 3.87568,3.5 2.31815,0 2.75435,-0.58716 3.90021,-5.25 C 115.0871,92.760544 116.07792,91 121.46444,91 c 2.15862,0 3.54234,-0.575297 3.95211,-1.643128 0.34679,-0.903721 0.50743,-1.750891 0.35699,-1.882601 C 125.62309,87.34256 117.4,87.069468 107.5,86.867399 L 89.5,86.5 89.180449,88.75 c -0.291387,2.051694 0.08319,2.25 4.25,2.25 C 97.721623,91 98,91.163526 98,93.684276 c 0,4.156168 -3.61083,10.572494 -7.387828,13.127934 -4.517197,3.05623 -12.871538,3.94191 -17.791638,1.88616 -6.074623,-2.53814 -7.545999,-6.20689 -6.982153,-17.409437 L 66,88.077866 74.57284,87.788933 83.14568,87.5 86.561964,77 C 88.440921,71.225 89.983143,66.3875 89.989125,66.25 89.995106,66.1125 88.65,66 87,66 c -1.65,0 -3,0.469278 -3,1.042841 0,1.636555 -9.117429,10.966523 -12.350504,12.638412 l -2.913463,1.50661 0.700393,-2.843932 c 1.028716,-4.177082 5.44008,-11.342904 8.975363,-14.579586 3.156437,-2.889832 10.915079,-5.768766 15.519712,-5.758768 8.905589,0.01934 16.929429,6.271148 19.145339,14.917182 1.19023,4.644032 1.58031,5.140992 3.82592,4.874258 2.28339,-0.271222 2.69621,-1.122054 4.75347,-9.797017 1.2391,-5.225 2.27336,-10.2875 2.29834,-11.25 0.0583,-2.244497 -2.79746,-2.26943 -7.42064,-0.06479 -3.34802,1.596559 -3.73121,1.587614 -7.28393,-0.170028 C 104.48758,54.159067 88.681678,53.30149 80.670697,54.964563 67.721206,57.652868 54.37574,67.228686 49.721752,77.171469 48.499788,79.782072 47.1625,81.936465 46.75,81.95901 45.423125,82.03153 45.940032,78.215166 48.607424,68.245515 50.041508,62.885482 52.47571,53.645266 54.016763,47.711703 55.557816,41.77814 57.364576,36.26564 58.031784,35.461703 58.820769,34.511034 61.124966,34 64.622445,34 69.230592,34 70,33.729357 70,32.108419 70,30.348232 68.729432,30.166691 51.708666,29.494909 41.648433,29.097849 32.541101,28.941728 31.47015,29.147974 c -2.935098,0.565248 -3.18437,3.84869 -0.293474,3.865681 4.543441,0.0267 6.824276,1.152494 6.793075,3.352976 C 37.953114,37.539984 36.82507,42.55 35.462986,47.5 c -1.362084,4.95 -3.854163,14.4 -5.537953,21 -1.68379,6.6 -3.482787,12.429541 -3.99777,12.954536 -0.514984,0.524994 -3.066661,1.199994 -5.670393,1.5 -3.443426,0.396756 -4.825315,1.022561 -5.068788,2.295464 -0.304027,1.589482 0.864416,1.761466 12.738594,1.875 C 35.117004,87.19375 41.45,87.3625 42,87.5 c 0.55,0.1375 1.619276,0.30625 2.37617,0.375 0.925282,0.08405 1.52656,1.938503 1.835179,5.660054 0.618519,7.458516 4.547951,13.013856 11.827392,16.721296 9.18805,4.6795 17.237913,5.6037 28.333498,3.25294 z m 1.566097,-8.33656 C 91.387746,103.3228 95,97.999234 95,94.765602 95,93.339703 94.134196,93 90.5,93 87.529927,93 86,92.568414 86,91.730567 86,90.785524 84.019569,90.545294 78.25,90.790477 68.237635,91.215961 68,91.32096 68,95.319392 c 0,4.917848 1.78511,9.267258 4.302761,10.483658 3.574723,1.72712 11.862887,1.393 15.635575,-0.63032 z M 136.37704,66 C 136.44833,55.866318 136.12088,53.510585 133.62097,46.17231 126.3563,24.847416 108.79077,8.9294803 87.720693,4.5773368 78.140351,2.5984629 73.887072,2.5976804 64.207842,4.5730112 52.948408,6.8708289 43.18756,11.915081 34.933534,19.701512 c -3.83922,3.621725 -6.805671,6.759684 -6.592113,6.973242 0.213558,0.213558 2.811603,-1.209327 5.773433,-3.161967 11.152375,-7.352404 21.671929,-9.933415 37.79663,-9.27354 9.106538,0.372669 13.032392,1.013121 18.330067,2.990314 20.671629,7.715044 35.913609,24.415177 40.732649,44.629409 1.41075,5.917636 1.77066,17.904935 0.76985,25.64103 -0.62674,4.84466 -0.56608,4.76699 1.95263,-2.5 2.18308,-6.298652 2.61242,-9.342067 2.68036,-19 z m -6.47672,10.615297 C 130.01065,71.20881 128.01544,59 127.02156,59 c -0.348,0 -1.73272,4.6125 -3.07715,10.25 L 121.5,79.5 l -3.76899,0.931006 c -4.58326,1.132142 -5.54139,0.359139 -6.86686,-5.540101 -2.00037,-8.902992 -8.33875,-13.90519 -17.582031,-13.875592 -5.958364,0.01908 -8.744207,1.442269 -4.489053,2.2933 1.624913,0.324983 3.1904,1.205918 3.478861,1.957633 0.28846,0.751715 -0.732132,5.27433 -2.267983,10.050255 L 87.211489,84 h 19.835241 c 14.70349,0 20.0335,0.32079 20.60155,1.239919 1.04939,1.697956 2.12549,-2.42316 2.25204,-8.624622 z M 78.900634,69.820478 c 3.199111,-4.350115 3.395089,-6.306115 0.355497,-3.548101 C 76.81768,68.484936 73.678068,74 74.856953,74 c 0.533515,0 2.353171,-1.880785 4.043681,-4.179522 z M 66.942009,57.029274 c 12.155476,-6.136065 31.395971,-7.741637 41.895371,-3.496065 4.05038,1.637824 4.56544,1.645125 7.78393,0.110334 C 118.51691,52.739594 120.95259,52 122.03393,52 c 3.03203,0 2.39206,-2.079754 -3.00463,-9.764361 C 104.58599,21.669108 78.223452,12.041744 53.115418,18.164475 c -5.673409,1.383492 -17.115855,6.413188 -17.114223,7.52281 6.57e-4,0.446993 7.988157,0.966479 17.75,1.154412 9.761843,0.187934 18.117692,0.691821 18.568553,1.119749 0.450862,0.427928 0.512494,2.415858 0.136961,4.417621 -0.730692,3.894924 -1.58082,4.359109 -8.890539,4.85439 C 60.1417,37.465488 59.523897,37.888446 58.794823,40.5 55.917349,50.807154 52,66.151384 52,67.115276 c 0,0.626694 1.987238,-0.692328 4.416084,-2.93116 2.428847,-2.238833 7.165513,-5.458512 10.525925,-7.154842 z"
       id="path26"
       inkscape:connector-curvature="0" />
    <path
       style="fill:#2f2f2f"
       d="M 53.674584,140.52026 C 35.231437,136.67796 17.467827,122.89634 9.1642315,105.9876 3.7363049,94.934635 1.5706806,84.404983 2.2768654,72.5 3.1510533,57.76279 9.6420159,41.242016 13.171364,44.771364 c 0.832141,0.832141 0.770476,2.760996 -0.237418,7.426371 -1.458927,6.753132 -1.772629,19.079623 -0.631504,24.81413 l 0.698835,3.511864 5.69788,-0.511864 L 24.397036,79.5 30.149131,58 c 3.163652,-11.825 5.774319,-21.586626 5.801482,-21.692502 0.02716,-0.105876 -1.844017,-0.330876 -4.158178,-0.5 -3.704497,-0.270733 -4.43909,-0.748592 -6.143996,-3.99673 L 23.712007,28.121537 28.10323,22.876703 C 52.159795,-5.8562217 97.569356,-6.3838732 122.39272,21.781075 133.68714,34.595884 139,48.742023 139,66 c 0,10.34787 -1.64289,18.322009 -5.52714,26.827174 -1.78921,3.917766 -2.90116,5.237911 -4.20287,4.989785 -0.97349,-0.185565 -1.90148,-1.251371 -2.06219,-2.368459 -0.25954,-1.804035 -0.81844,-1.970564 -5,-1.489785 L 117.5,94.5 l -2.13968,8.16222 c -2.08207,7.94243 -2.08881,8.17552 -0.25,8.65638 2.76803,0.72386 2.32264,2.97395 -1.49258,7.54048 -4.13745,4.9522 -5.05639,5.84137 -10.12525,9.79728 -13.421015,10.47419 -33.516885,15.25993 -49.817906,11.8639 z m 26.261527,-3.13492 c 8.984936,-2.21022 18.718658,-7.47641 26.002759,-14.06814 7.37417,-6.67324 10.61378,-11.50158 4.68077,-6.97625 -4.65777,3.55265 -16.542937,9.00302 -23.107238,10.59665 -2.743179,0.66597 -9.803413,1.19773 -15.68941,1.1817 C 59.309396,128.0852 49.883691,125.47328 38.929723,119.00435 30.84089,114.22743 20.592876,103.52706 16.225445,95.297875 9.910125,83.398446 7.4601186,67.278662 10.097663,54.980217 c 1.709363,-7.970486 0.312199,-7.004165 -2.423534,1.676189 -6.1085335,19.382096 -3.5088486,38.452411 7.481991,54.885084 14.424463,21.56636 40.263356,31.87473 64.779991,25.84385 z m 6.572574,-12.83222 c 4.97617,-1.17377 15.195075,-4.92354 16.225335,-5.9538 C 103.47907,117.85426 100.63616,112 99.529293,112 c -0.701281,0 -3.396478,0.93841 -5.989326,2.08535 -7.515723,3.32456 -21.363314,3.77059 -30.5387,0.98365 -6.063002,-1.84158 -8.149729,-3.08703 -12.557654,-7.49495 -4.614029,-4.61403 -5.438715,-6.06072 -6.484195,-11.374796 L 42.761594,90.110832 30.130797,89.805416 c -6.946938,-0.167979 -12.976241,-0.04997 -13.398449,0.262236 -0.902453,0.667333 5.514607,10.866148 10.180828,16.180678 7.004956,7.97821 20.6787,15.91532 31.45654,18.2594 8.154025,1.77341 20.72706,1.7937 28.138969,0.0454 z m 6.714529,-13.05907 c 3.452232,-1.4339 6.794206,-2.8375 7.426616,-3.11912 0.65614,-0.29219 1.65548,1.02014 2.32755,3.05652 0.98115,2.97294 1.64991,3.56855 4.00677,3.56855 2.75,0 2.8943,-0.27068 5.16468,-9.68837 1.28461,-5.328599 3.042,-10.56068 3.90533,-11.626845 0.86333,-1.066164 3.33698,-2.225745 5.497,-2.576846 2.48218,-0.403468 4.04247,-1.23636 4.24028,-2.263487 0.27519,-1.428945 -1.82628,-1.714242 -17.4086,-2.363409 C 92.060941,85.801064 90.558706,85.88302 89.362669,87.518699 87.514092,90.046777 88.534791,91 93.090402,91 c 4.942787,0 5.711434,1.611901 3.513304,7.367622 C 92.92917,107.98926 82.114393,112.5816 72.545662,108.58353 67.310146,106.39599 65.853774,103.35837 66.20198,95.352239 L 66.5,88.5 h 8.284188 8.284189 l 2.850461,-9 c 1.567754,-4.95 3.157694,-10.0125 3.533199,-11.25 0.597824,-1.97016 0.33233,-2.2424 -2.134649,-2.188896 -2.117096,0.04592 -3.56549,1.091499 -5.827124,4.206549 C 78.139806,74.882391 69.745792,81.737376 69.253585,80.260756 68.6785,78.535499 72.748276,70.35629 76.056739,66.588159 80.826047,61.156217 86.31803,58.660072 93.5,58.660072 c 10.57353,0 17.03207,4.961713 19.64218,15.089928 0.94965,3.685002 1.4555,4.25 3.80514,4.25 2.63206,0 2.77226,-0.297219 4.88129,-10.348456 1.19426,-5.691651 2.17139,-10.866651 2.17139,-11.5 0,-1.714284 -4.41848,-1.39227 -7.83991,0.571363 -2.86278,1.643009 -3.17957,1.634664 -6.83104,-0.179944 C 103.79729,53.793948 86.770318,53.218878 78,55.484854 65.498702,58.714799 54.624554,66.987871 49.278975,77.335863 47.587772,80.6097 46.479988,81.897984 46.252603,80.855343 45.802925,78.793414 56.736898,37.021945 58.18212,35.280559 58.804762,34.530321 61.471908,34 64.622445,34 69.229603,34 70,33.72915 70,32.109406 70,29.590017 66.637415,29.206126 46,29.369433 29.695325,29.498454 29.496217,29.526635 29.180449,31.75 28.889062,33.801694 29.26364,34 33.430449,34 37.059707,34 38,34.348875 38,35.695431 38,37.46117 31.344603,63.522163 27.898644,75.25 25.817258,82.333706 25.843507,82.312507 19,82.436557 c -2.844793,0.05157 -3.559821,0.484648 -3.819551,2.313443 -0.302898,2.132744 0.01481,2.25 6.096375,2.25 3.52876,0 10.535058,0.292384 15.569551,0.649743 L 46,88.299485 l 0.02196,4.100258 c 0.05345,9.979277 8.125643,18.394537 20.69554,21.575087 6.526804,1.65148 19.47454,0.43964 26.505712,-2.48078 z M 88.153457,105.406 C 91.25222,103.82067 95,98.196692 95,95.131966 95,93.303213 94.417797,93 90.90638,93 c -3.266844,0 -4.200363,-0.40819 -4.622142,-2.021075 -0.402317,-1.538461 -0.842217,-1.760733 -1.842196,-0.930824 -0.750711,0.623034 -4.448095,0.986598 -8.627857,0.848376 L 68.5,90.654602 68.19734,95.275127 c -0.39849,6.083493 1.843663,10.383263 6.06524,11.631293 3.778871,1.11715 10.111426,0.43314 13.890877,-1.50042 z M 134.01615,85 c 1.28072,-3.829603 2.381,-10.197473 2.6782,-15.5 C 138.62981,34.967366 113.37701,5.7886827 79.41431,3.3150406 63.353936,2.1452979 45.580236,8.7659205 34.011683,20.227314 c -6.532954,6.472438 -8.004763,9.394665 -2.689997,5.340895 4.666348,-3.559197 17.184517,-9.134023 23.477535,-10.455457 7.477818,-1.570223 21.544792,-1.355641 29.185614,0.445205 11.816628,2.785032 20.626795,7.81398 29.668295,16.935023 6.3996,6.455897 9.02577,10.029563 12.21048,16.615937 2.23154,4.615096 4.57963,10.833822 5.21797,13.819392 1.20882,5.653685 0.80372,24.95631 -0.59962,28.571691 -0.54356,1.400343 -0.45599,1.700171 0.29205,1 0.58761,-0.55 2.04657,-3.925 3.24214,-7.5 z M 130,77.772896 C 130,69.888132 128.21686,58 127.03419,58 c -0.41827,0 -1.53316,3.890622 -2.47754,8.645827 -2.45828,12.378214 -2.80441,13.047541 -7.00058,13.537421 -1.97054,0.230049 -3.96714,0.170429 -4.4369,-0.132489 -0.46976,-0.302917 -1.57225,-3.03826 -2.44997,-6.078539 -1.57044,-5.439705 -4.7726,-9.496568 -9.35346,-11.850034 -3.886425,-1.996693 -18.369713,-1.039534 -15.150275,1.001239 0.733994,0.465272 2.309535,0.85284 3.501202,0.861262 3.13465,0.02215 3.291515,1.714022 0.835875,9.015313 -1.202378,3.575 -2.46322,7.625 -2.801872,9 l -0.615729,2.5 18.258859,-0.291269 c 10.04237,-0.160198 19.36076,0.124466 20.70753,0.632587 1.34677,0.508121 2.78617,0.725134 3.19867,0.482252 0.4125,-0.242882 0.75,-3.640686 0.75,-7.550674 z M 81.997295,65.190983 c 0.0015,-0.719959 -0.477017,-1.012532 -1.063345,-0.650162 -1.622048,1.002481 -6.939723,8.610337 -6.891313,9.859217 0.05954,1.536082 7.951334,-7.600193 7.954658,-9.209055 z m -27.402283,0.656174 c 3.508471,-3.964953 13.75362,-9.895274 20.863463,-12.076645 9.312484,-2.857164 23.52505,-3.039044 32.129745,-0.41117 5.65638,1.727463 6.30895,1.745195 9.20034,0.25 C 118.50022,52.724204 121.07611,52 122.51275,52 h 2.61207 l -2.81241,-5.25 C 120.76559,43.8625 116.23949,38.21772 112.25443,34.206044 97.678212,19.532483 76.190043,13.132672 55.923111,17.428915 48.518051,18.998662 36,24.330126 36,25.91421 c 0,0.669916 6.274039,1.136754 17.642159,1.312716 19.708405,0.305056 20.921195,0.727448 18.237059,6.351626 C 70.646721,36.161054 69.852201,36.55801 65.031073,37 L 59.577187,37.5 58.27904,42 c -4.018137,13.928788 -6.950434,26 -6.315829,26 0.399747,0 1.584058,-0.968779 2.631801,-2.152843 z"
       id="path24"
       inkscape:connector-curvature="0" />
    <path
       style="fill:#050505"
       d="M 54.889049,140.44786 C 26.790004,134.84284 7.0478435,113.68374 2.8540832,84.678241 1.4075515,74.673527 2.6749577,63.741428 6.5045279,53.191081 9.2566151,45.609166 11.365406,42.965406 13.198699,44.798699 c 0.950647,0.950647 0.938193,2.239028 -0.05758,5.957143 -1.7062,6.370753 -2.45939,19.697702 -1.426279,25.236578 l 0.837926,4.492419 5.331318,-0.150119 C 20.816309,80.25215 23.622723,79.77728 24.12056,79.279443 24.794963,78.605037 36,38.074312 36,36.309266 36,36.13917 34.2551,36 32.122445,36 28.417714,36 25.272617,34.060716 26.685675,32.647658 27.053253,32.28008 26.511848,31.36354 25.482554,30.610901 23.698847,29.306623 23.691766,29.11937 25.331513,26.616799 28.492472,21.792566 37.665798,13.540562 44.117126,9.7179167 54.70884,3.4419432 62.523767,1.4832568 76.5,1.6016673 86.786167,1.6888146 89.561989,2.0820894 95.935885,4.3553176 127.4627,15.599248 145.47619,49.897947 136.95026,82.448991 134.30729,92.53957 131.38547,98.361895 129.35557,97.582951 128.52004,97.262328 127.64823,97 127.41821,97 c -0.23001,0 -0.41818,-0.7875 -0.41814,-1.75 6e-5,-1.343207 -0.75541,-1.709778 -3.25,-1.576966 -1.78754,0.09517 -3.98286,0.207669 -4.8785,0.25 -1.15989,0.05482 -2.1075,2.019093 -3.2935,6.826966 -0.91579,3.7125 -1.88312,7.48172 -2.14962,8.37604 -0.30982,1.03973 0.24672,1.81726 1.54351,2.15638 3.61657,0.94575 2.17618,3.87012 -5.72196,11.61712 -10.429333,10.22975 -19.213131,14.75756 -34.25,17.65497 -8.747924,1.68561 -11.190992,1.67265 -20.110951,-0.10665 z m 30.260884,-4.30076 c 7.95093,-2.58933 16.779387,-8.28899 23.749487,-15.33268 5.25966,-5.31519 6.81724,-8.28994 2.85058,-5.44416 -11.30227,8.1085 -21.762532,11.76574 -35.495954,12.41051 -13.23561,0.62139 -20.498135,-0.82222 -31.983984,-6.35763 C 20.033468,109.74272 5.5194184,82.808 9.9016572,57.643325 c 0.6343548,-3.642736 1.4502448,-7.415194 1.8130888,-8.38324 0.555766,-1.482754 0.416721,-1.562803 -0.882451,-0.508033 -0.8481915,0.688629 -2.6156642,4.738629 -3.9277171,9 -3.0491943,9.903374 -3.2927492,26.481505 -0.5243077,35.688224 6.5446588,21.764894 22.8037028,38.001174 44.1232758,44.061504 7.523714,2.1387 26.156573,1.41015 34.646387,-1.35468 z M 93,123.11009 c 3.575,-1.2427 7.49296,-2.89842 8.70659,-3.67938 2.14961,-1.38326 2.16252,-1.50398 0.5,-4.67532 -0.93863,-1.79046 -1.72841,-3.35221 -1.75508,-3.47054 -0.0267,-0.11834 -2.801129,0.89669 -6.165474,2.25561 -7.823638,3.1601 -19.167397,4.18243 -27.287542,2.45922 C 54.25915,113.29621 44,103.72205 44,94.536765 V 90.29956 L 30.259655,89.723458 c -7.55719,-0.316855 -13.90181,-0.414636 -14.099156,-0.21729 -1.175069,1.175069 6.395779,12.105672 12.809513,18.494062 8.326577,8.29367 16.698979,13.3062 27.002833,16.16652 C 65.37116,126.77569 83.982724,126.24457 93,123.11009 Z M 109.82507,114.25 c 0.49248,-0.9625 1.90454,-5.89576 3.1379,-10.9628 1.23336,-5.067047 2.76445,-9.646016 3.40243,-10.175491 0.63798,-0.529475 2.95425,-1.108713 5.14728,-1.287196 3.17597,-0.25848 4.04896,-0.756567 4.29027,-2.447814 0.39686,-2.781506 -0.66876,-2.951014 -20.56969,-3.272016 C 94.937459,85.938612 89,86.207426 89,86.839633 c 0,0.548236 -0.273145,1.708596 -0.606989,2.57858 C 87.894349,90.717704 88.597681,91 92.333994,91 c 2.501385,0 4.81967,0.439617 5.151746,0.976927 1.16636,1.88721 -1.573787,8.974023 -4.787296,12.381343 -4.362689,4.62579 -10.020413,6.13188 -17.332457,4.61391 -4.501298,-0.93447 -5.848311,-1.71543 -7.428416,-4.30681 C 65.981082,101.45671 65.219488,91.604059 66.765313,89.5 c 0.404078,-0.55 4.295308,-1 8.647178,-1 h 7.912491 l 3.415217,-10.838959 c 1.878369,-5.961427 3.267748,-10.968024 3.087509,-11.125772 -0.180239,-0.157748 -1.288093,-0.5815 -2.461897,-0.941672 -1.745326,-0.535539 -2.788894,0.256444 -5.727398,4.346626 -3.295614,4.587255 -11.077524,10.953999 -12.117571,9.913952 -0.923836,-0.923836 4.547051,-11.023213 7.767777,-14.33949 1.857206,-1.912303 5.012579,-4.160413 7.011941,-4.9958 4.208075,-1.758246 13.299663,-1.997534 17.38434,-0.457551 4.81077,1.813729 9.27458,6.991455 10.92656,12.674092 1.3972,4.806178 1.78549,5.264574 4.4595,5.264574 1.61097,0 2.94524,-0.3375 2.96504,-0.75 0.0198,-0.4125 1.09749,-5.5875 2.39486,-11.5 1.29736,-5.9125 2.18116,-10.795 1.96399,-10.85 -2.1568,-0.546228 -5.47055,0.0419 -8.14485,1.445544 -2.86353,1.502973 -3.57701,1.537965 -6,0.294267 C 105.3261,54.11242 96.009612,52.740632 88.676316,53.463236 70.175728,55.286237 55.525719,64.340709 48.16718,78.5 c -1.143334,2.2 -2.098676,3.349556 -2.122984,2.554569 -0.04653,-1.521833 6.67976,-27.809975 10.054449,-39.295464 2.151702,-7.323151 3.663034,-8.461388 9.999966,-7.531324 2.5373,0.372396 3.232378,0.03185 3.987199,-1.953479 C 70.588615,30.951826 71,29.674096 71,29.4349 71,29.195705 61.55,29 50,29 H 29 v 2.5 c 0,2.24376 0.403934,2.5 3.940983,2.5 2.167541,0 4.211397,0.43754 4.541904,0.97231 0.330506,0.534771 -0.965738,6.947271 -2.880544,14.25 C 32.687538,56.52504 30.142565,66.325 28.946849,71 c -1.195716,4.675 -2.628014,9.0625 -3.182884,9.75 -0.55487,0.6875 -2.993255,1.25 -5.418634,1.25 -3.654226,0 -4.555623,0.385506 -5.260995,2.25 -0.468169,1.2375 -0.719176,2.396993 -0.557793,2.57665 0.515035,0.573356 7.640706,0.963837 19.527314,1.070081 L 45.607714,88 l 0.08579,3.900616 c 0.136569,6.209319 2.114888,10.693554 6.442605,14.603384 5.528271,4.99446 11.867562,7.48177 20.829886,8.1729 8.832661,0.68112 16.211056,-0.65604 23.318584,-4.22594 2.745735,-1.37911 5.055811,-2.38225 5.133491,-2.22921 0.0777,0.15304 0.90812,1.96575 1.84541,4.02825 1.86121,4.09558 4.99983,5.05224 6.56159,2 z m -25.478415,-7.19034 c 4.121736,-0.95647 8.38983,-4.30839 9.625914,-7.55966 2.455296,-6.458158 2.493336,-6.362913 -2.673211,-6.693193 -4.207231,-0.268954 -4.841404,-0.604404 -5.140152,-2.718916 -0.260308,-1.842431 -0.547824,-2.078605 -1.217389,-1 C 84.308574,90.107983 81.904686,90.5 76.282611,90.5 H 68.5 l -0.30122,5.220035 c -0.362967,6.290075 0.916577,8.989415 5.129957,10.822205 3.736585,1.62539 5.82138,1.72329 11.017918,0.51742 z M 133.99044,86 c 3.11091,-9.350684 3.81548,-24.745292 1.56621,-34.22141 C 130.43476,30.200108 114.95151,12.995394 94.03955,5.645514 89.82398,4.163877 85.631939,3.6748144 76.5,3.5992703 61.558392,3.4756655 53.624712,5.687711 42.626456,13.043794 35.715759,17.665949 27,26.085472 27,28.139127 c 0,0.471651 2.186819,-0.713526 4.859598,-2.633727 14.412888,-10.354629 34.83131,-14.060199 52.530921,-9.533401 15.813641,4.044448 28.405381,12.958659 37.489261,26.540186 7.23385,10.815512 9.53483,18.497018 9.58187,31.987815 0.0211,6.05 -0.32218,13.025 -0.76284,15.5 -1.10137,6.186055 0.5843,4.137618 3.29163,-4 z m -4.1978,-8.966599 C 130.09178,68.543452 128.54332,58 126.99731,58 c -0.47349,0 -1.61005,3.4875 -2.52569,7.75 -3.21205,14.952727 -2.5366,13.713766 -7.65962,14.049864 l -4.57071,0.299864 -0.70347,-3.799864 C 109.60117,65.838856 104.1651,61 94.349653,61 90.94731,61 87.451771,61.273145 86.581787,61.606989 83.959594,62.613219 84.799654,64 88.031385,64 c 4.370294,0 4.670456,2.121107 1.611612,11.388535 C 88.170481,79.849841 86.972974,83.725 86.981872,84 c 0.0089,0.275 4.404116,0.368175 9.767152,0.207055 5.363036,-0.16112 14.475976,0.110461 20.250976,0.603513 5.775,0.493052 10.95,0.813656 11.5,0.712455 0.55,-0.101201 1.13169,-3.921531 1.29264,-8.489622 z M 79.267066,69.835205 c 2.071886,-2.823924 3.529692,-5.371781 3.239569,-5.661904 -0.747561,-0.74756 -5.68406,4.16418 -7.821061,7.781834 -3.068603,5.194731 0.388422,3.595109 4.581492,-2.11993 z M 53.323092,67.600419 C 54.232273,65.231131 66.17708,57.385461 72.325954,55.11883 c 12.086831,-4.455515 29.462326,-4.685788 38.268136,-0.507159 3.2293,1.532403 3.59281,1.529158 5.33515,-0.04764 1.02836,-0.930647 3.28101,-1.732212 5.00591,-1.781254 1.7249,-0.04904 3.36936,-0.466472 3.65437,-0.92762 C 125.38477,50.568417 116.82735,38.051508 111.69884,33 93.975065,15.54235 64.426239,10.970362 41.516163,22.140877 37.932273,23.888313 35,25.696476 35,26.159017 35,26.621558 43.0449,27 52.877555,27 72.527304,27 73.546558,27.294063 72.147741,32.55961 71.416827,35.310982 70.986702,35.532142 65.456662,36 L 59.54671,36.5 55.823242,50 c -4.894536,17.745886 -5.159199,19 -4.009686,19 0.534856,0 1.214148,-0.629811 1.509536,-1.399581 z"
       id="path22"
       inkscape:connector-curvature="0" />
  </g>
</svg>
